<svg width="1360" height="80" viewBox="0 0 1360 80" fill="none" xmlns="http://www.w3.org/2000/svg">
<rect width="1360" height="80" rx="12" fill="#00A3FF"/>
<mask id="mask0_548_150" style="mask-type:alpha" maskUnits="userSpaceOnUse" x="0" y="0" width="1360" height="80">
<rect width="1360" height="80" rx="12" fill="#00A3FF"/>
</mask>
<g mask="url(#mask0_548_150)">
<circle cx="1344" cy="20" r="30" fill="#FFE600"/>
<path fill-rule="evenodd" clip-rule="evenodd" d="M1238.22 52.0106C1241.61 28.2594 1262.04 10 1286.73 10C1302.81 10 1317.09 17.7519 1326.02 29.7239C1329.88 28.4864 1334 27.8182 1338.27 27.8182C1360.41 27.8182 1378.36 45.7675 1378.36 67.9091C1378.36 90.0507 1360.41 108 1338.27 108H1286.73H1239H1235.18V107.742C1221.52 105.88 1211 94.1688 1211 80C1211 64.7962 1223.12 52.4227 1238.22 52.0106Z" fill="white"/>
</g>
<path d="M25.072 51C25.072 40.92 28.528 35.808 33.352 31.056V26.88H16.9V30.624H29.536C25.756 34.368 20.608 39.732 20.608 51H25.072ZM44.4721 51.36C49.9441 51.36 53.3641 48.048 53.3641 43.08C53.3641 38.292 50.7001 35.196 46.1281 35.196C42.9241 35.196 40.9801 36.924 40.2241 39.084L40.8001 30.624H51.5641V26.88H36.9121L36.1201 40.596L40.0801 40.992L40.1161 40.668C40.3321 39.12 41.9521 38.148 44.2561 38.148C46.7401 38.148 49.0081 39.516 49.0081 42.9C49.0081 45.708 47.4241 47.436 44.5081 47.436C41.4121 47.436 39.2881 45.636 38.4601 42.648L35.2201 45.78C36.4441 48.912 39.8641 51.36 44.4721 51.36ZM59.8098 32.208C61.5018 32.208 62.8338 30.984 62.8338 29.184C62.8338 27.42 61.5018 26.16 59.8098 26.16C58.1538 26.16 56.8218 27.42 56.8218 29.184C56.8218 30.984 58.1538 32.208 59.8098 32.208ZM59.8098 30.66C59.0178 30.66 58.4778 30.084 58.4778 29.184C58.4778 28.284 59.0178 27.708 59.8098 27.708C60.6378 27.708 61.1778 28.284 61.1778 29.184C61.1778 30.084 60.6378 30.66 59.8098 30.66ZM70.9948 51V41.496H81.4708V37.896H70.9948V30.48H83.6668V26.88H66.9268V51H70.9948Z" fill="white"/>
</svg>
